<svg width="24" height="24" viewBox="0 0 24 24" fill="currentcolor" xmlns="http://www.w3.org/2000/svg">
<path d="M9.78025 12.8271C9.78025 12.6267 9.61399 12.4643 9.40885 12.4643H8.11281C7.9079 12.4643 7.74161 12.6267 7.74161 12.8271V14.0942C7.74161 14.2949 7.9079 14.4574 8.11281 14.4574H9.40885C9.61399 14.4574 9.78025 14.2949 9.78025 14.0942V12.8271Z" fill="currentcolor"/>
<path d="M13.0192 12.8271C13.0192 12.6267 12.853 12.4643 12.6482 12.4643H11.352C11.1471 12.4643 10.9808 12.6267 10.9808 12.8271V14.0942C10.9808 14.2949 11.1471 14.4574 11.352 14.4574H12.6482C12.853 14.4574 13.0192 14.2949 13.0192 14.0942V12.8271Z" fill="currentcolor"/>
<path d="M16.2584 12.8271C16.2584 12.6267 16.0921 12.4643 15.8872 12.4643H14.5912C14.386 12.4643 14.2197 12.6267 14.2197 12.8271V14.0942C14.2197 14.2949 14.386 14.4574 14.5912 14.4574H15.8872C16.0921 14.4574 16.2584 14.2949 16.2584 14.0942V12.8271Z" fill="currentcolor"/>
<path d="M9.78025 15.9946C9.78025 15.7938 9.61399 15.6316 9.40885 15.6316H8.11281C7.9079 15.6316 7.74161 15.7938 7.74161 15.9946V17.2615C7.74161 17.4621 7.9079 17.6245 8.11281 17.6245H9.40885C9.61399 17.6245 9.78025 17.462 9.78025 17.2615V15.9946Z" fill="currentcolor"/>
<path d="M13.0192 15.9946C13.0192 15.7938 12.853 15.6316 12.6482 15.6316H11.352C11.1471 15.6316 10.9808 15.7938 10.9808 15.9946V17.2615C10.9808 17.4621 11.1471 17.6245 11.352 17.6245H12.6482C12.853 17.6245 13.0192 17.462 13.0192 17.2615V15.9946Z" fill="currentcolor"/>
<path d="M16.2584 15.9946C16.2584 15.7938 16.0921 15.6316 15.8873 15.6316H14.5912C14.386 15.6316 14.2197 15.7938 14.2197 15.9946V17.2615C14.2197 17.4621 14.386 17.6245 14.5912 17.6245H15.8873C16.0921 17.6245 16.2584 17.462 16.2584 17.2615V15.9946Z" fill="currentcolor"/>
<path d="M18.5758 5.78155V7.71701C18.5758 8.59182 17.8501 9.29678 16.9556 9.29678H15.9335C15.0389 9.29678 14.3035 8.59182 14.3035 7.71701V5.7746H9.69652V7.71701C9.69652 8.59182 8.96117 9.29678 8.06672 9.29678H7.0444C6.14992 9.29678 5.42419 8.59182 5.42419 7.71701V5.78155C4.64241 5.80459 4 6.43714 4 7.21464V18.5573C4 19.3495 4.65659 20 5.46666 20H18.5333C19.3422 20 20 19.3481 20 18.5573V7.21464C20 6.43714 19.3576 5.80459 18.5758 5.78155ZM18.1011 17.851C18.1011 18.1933 17.8173 18.471 17.467 18.471H6.50503C6.15482 18.471 5.87098 18.1933 5.87098 17.851V11.9921C5.87098 11.6497 6.15478 11.3719 6.50503 11.3719H17.467C17.8172 11.3719 18.1011 11.6497 18.1011 11.9921L18.1011 17.851Z" fill="currentcolor"/>
<path d="M7.04081 8.25915H8.05182C8.35871 8.25915 8.60752 8.01621 8.60752 7.71614V4.54321C8.60752 4.2431 8.35871 4 8.05182 4H7.04081C6.7339 4 6.48511 4.2431 6.48511 4.54321V7.71614C6.48511 8.01621 6.7339 8.25915 7.04081 8.25915Z" fill="currentcolor"/>
<path d="M15.9204 8.25915H16.9314C17.2381 8.25915 17.487 8.01621 17.487 7.71614V4.54321C17.487 4.2431 17.2382 4 16.9314 4H15.9204C15.6136 4 15.3648 4.2431 15.3648 4.54321V7.71614C15.3648 8.01621 15.6136 8.25915 15.9204 8.25915Z" fill="currentcolor"/>
</svg>
