<svg width="28" height="28" viewBox="0 0 28 28" fill="none" xmlns="http://www.w3.org/2000/svg">
<path d="M23.8001 1.39998L15.4001 9.79999L18.2 12.6L28.0001 2.80003V1.39998H23.8001Z" fill="#FDE465"/>
<path d="M11.2 5.59999C11.2 2.50603 8.69401 0 5.59999 0C2.50596 0 0 2.50603 0 5.59999C0 8.69395 2.50603 11.2 5.59999 11.2C6.41899 11.2 7.19599 11.011 7.89601 10.696L11.2 14L7.89601 17.304C7.19599 16.989 6.41899 16.8 5.59999 16.8C2.50603 16.8 0 19.3061 0 22.4C0 25.494 2.50603 28 5.59999 28C8.69395 28 11.2 25.494 11.2 22.4C11.2 21.581 11.011 20.804 10.696 20.104L14 16.8L23.8 26.6H28V25.2L10.696 7.89601C11.011 7.19599 11.2 6.41899 11.2 5.59999ZM5.59999 8.40001C4.05301 8.40001 2.79996 7.14703 2.79996 5.59999C2.79996 4.05301 4.05294 2.79996 5.59999 2.79996C7.14703 2.80003 8.40001 4.05301 8.40001 5.59999C8.40001 7.14703 7.14703 8.40001 5.59999 8.40001ZM5.59999 25.2C4.05301 25.2 2.79996 23.9471 2.79996 22.4C2.79996 20.853 4.05294 19.6 5.59999 19.6C7.14697 19.6 8.40001 20.853 8.40001 22.4C8.40001 23.9471 7.14703 25.2 5.59999 25.2ZM14 13.3C14.385 13.3 14.7 13.615 14.7 14.0001C14.7 14.3851 14.385 14.7 14 14.7C13.615 14.7 13.3 14.385 13.3 14C13.3 13.615 13.615 13.3 14 13.3Z" fill="#FDE465"/>
</svg>
