<svg width="21" height="21" viewBox="0 0 21 21" fill="none" xmlns="http://www.w3.org/2000/svg">
<path d="M7.41836 11.5856C7.41836 11.3225 7.20499 11.1094 6.94171 11.1094H5.27837C5.01539 11.1094 4.80197 11.3225 4.80197 11.5856V13.2487C4.80197 13.5121 5.01539 13.7253 5.27837 13.7253H6.94171C7.20499 13.7253 7.41836 13.5121 7.41836 13.2487V11.5856Z" fill="currentcolor"/>
<path d="M11.5753 11.5856C11.5753 11.3225 11.3619 11.1094 11.0991 11.1094H9.43553C9.17256 11.1094 8.95914 11.3225 8.95914 11.5856V13.2487C8.95914 13.5121 9.17256 13.7253 9.43553 13.7253H11.0991C11.3619 13.7253 11.5753 13.5121 11.5753 13.2487V11.5856Z" fill="currentcolor"/>
<path d="M15.7324 11.5856C15.7324 11.3225 15.519 11.1094 15.256 11.1094H13.5927C13.3294 11.1094 13.116 11.3225 13.116 11.5856V13.2487C13.116 13.5121 13.3294 13.7253 13.5927 13.7253H15.256C15.519 13.7253 15.7324 13.5121 15.7324 13.2487V11.5856Z" fill="currentcolor"/>
<path d="M7.41836 15.7429C7.41836 15.4794 7.20499 15.2665 6.94171 15.2665H5.27837C5.01539 15.2665 4.80197 15.4794 4.80197 15.7429V17.4057C4.80197 17.669 5.01539 17.8821 5.27837 17.8821H6.94171C7.20499 17.8821 7.41836 17.6689 7.41836 17.4057V15.7429Z" fill="currentcolor"/>
<path d="M11.5753 15.7429C11.5753 15.4794 11.3619 15.2665 11.0991 15.2665H9.43553C9.17256 15.2665 8.95914 15.4794 8.95914 15.7429V17.4057C8.95914 17.669 9.17256 17.8821 9.43553 17.8821H11.0991C11.3619 17.8821 11.5753 17.6689 11.5753 17.4057V15.7429Z" fill="currentcolor"/>
<path d="M15.7324 15.7429C15.7324 15.4794 15.519 15.2665 15.2562 15.2665H13.5927C13.3294 15.2665 13.116 15.4794 13.116 15.7429V17.4057C13.116 17.669 13.3294 17.8821 13.5927 17.8821H15.2562C15.519 17.8821 15.7324 17.6689 15.7324 17.4057V15.7429Z" fill="currentcolor"/>
<path d="M18.7066 2.33828V4.87857C18.7066 6.02676 17.7752 6.95202 16.6272 6.95202H15.3154C14.1673 6.95202 13.2235 6.02676 13.2235 4.87857V2.32916H7.31091V4.87857C7.31091 6.02676 6.36716 6.95202 5.21923 6.95202H3.90718C2.75921 6.95202 1.8278 6.02676 1.8278 4.87857V2.33828C0.824465 2.36853 0 3.19875 0 4.21922V19.1065C0 20.1462 0.842662 21 1.88231 21H18.6521C19.6902 21 20.5344 20.1444 20.5344 19.1065V4.21922C20.5344 3.19875 19.71 2.36853 18.7066 2.33828ZM18.0974 18.1795C18.0974 18.6287 17.7331 18.9932 17.2836 18.9932H3.21496C2.7655 18.9932 2.40121 18.6287 2.40121 18.1795V10.4896C2.40121 10.0402 2.76545 9.67566 3.21496 9.67566H17.2836C17.733 9.67566 18.0973 10.0402 18.0973 10.4896L18.0974 18.1795Z" fill="currentcolor"/>
<path d="M3.90257 5.59014H5.20011C5.59396 5.59014 5.91329 5.27128 5.91329 4.87744V0.712959C5.91329 0.319074 5.59396 0 5.20011 0H3.90257C3.50868 0 3.18939 0.319074 3.18939 0.712959V4.87744C3.18939 5.27128 3.50868 5.59014 3.90257 5.59014Z" fill="currentcolor"/>
<path d="M15.2987 5.59014H16.5962C16.9898 5.59014 17.3092 5.27128 17.3092 4.87744V0.712959C17.3092 0.319074 16.9899 0 16.5962 0H15.2987C14.9049 0 14.5856 0.319074 14.5856 0.712959V4.87744C14.5856 5.27128 14.9049 5.59014 15.2987 5.59014Z" fill="currentcolor"/>
</svg>
