<svg width="24" height="24" viewBox="0 0 24 24" fill="currentcolor" xmlns="http://www.w3.org/2000/svg">
<path d="M18 3C16.3458 3 15 4.34581 15 5.99999C15 7.43486 17.1259 10.3389 17.624 10.9999C17.6238 11.2134 17.624 11.4231 17.6188 11.6155C17.6133 11.8224 17.7767 11.9949 17.9839 12.0004C17.9872 12.0004 17.9905 12.0004 17.9942 12.0004C18.1963 12.0004 18.3633 11.8388 18.3688 11.6353C18.374 11.4378 18.3738 11.2223 18.374 11.0027C18.8687 10.3463 21 7.43654 21 5.99999C21 4.34581 19.6541 3 18 3ZM18 6.75001C17.5866 6.75001 17.25 6.41346 17.25 6.00002C17.25 5.58658 17.5866 5.25004 18 5.25004C18.4134 5.25004 18.75 5.58655 18.75 5.99999C18.75 6.41346 18.4134 6.75001 18 6.75001Z" fill="currentcolor"/>
<path d="M14.4785 13.8079C13.8596 14.1592 13.5158 14.7688 13.3107 15.1966C13.2209 15.3834 13.2996 15.6076 13.4864 15.6968C13.5388 15.7221 13.5941 15.7338 13.6483 15.7338C13.7881 15.7338 13.9222 15.6555 13.9867 15.5211C14.247 14.978 14.5129 14.6509 14.849 14.4598C15.0289 14.3576 15.0922 14.1287 14.9897 13.9486C14.8879 13.7684 14.6598 13.705 14.4785 13.8079Z" fill="currentcolor"/>
<path d="M11.0658 19.2521C10.69 19.5498 10.263 19.7739 9.75986 19.9376C9.56285 20.0017 9.45516 20.2134 9.51925 20.4104C9.5709 20.5686 9.71775 20.6693 9.87595 20.6693C9.91441 20.6693 9.95358 20.6635 9.99203 20.651C10.5732 20.4621 11.091 20.1892 11.5316 19.8402C11.6938 19.7113 11.7213 19.4755 11.5928 19.3132C11.4631 19.1514 11.2276 19.1224 11.0658 19.2521Z" fill="currentcolor"/>
<path d="M13.1803 16.5154C12.9861 16.44 12.7701 16.5363 12.6951 16.7296C12.5269 17.1639 12.3168 17.6704 12.0333 18.1344C11.9253 18.3113 11.9813 18.542 12.1579 18.65C12.219 18.6874 12.2864 18.705 12.353 18.705C12.4793 18.705 12.6027 18.6413 12.6735 18.5255C12.9877 18.0107 13.2144 17.4657 13.3945 17.0007C13.4692 16.8076 13.3733 16.5905 13.1803 16.5154Z" fill="currentcolor"/>
<path d="M17.8608 12.8797C17.6905 12.7644 17.4565 12.8086 17.34 12.98C17.2167 13.1624 16.9639 13.4133 16.1997 13.4818C15.9935 13.5004 15.8411 13.6824 15.8598 13.8889C15.8774 14.0838 16.0411 14.2302 16.233 14.2302C16.2443 14.2302 16.2557 14.2299 16.2671 14.2288C17.079 14.1559 17.633 13.8849 17.9611 13.4004C18.0772 13.229 18.0322 12.9958 17.8608 12.8797Z" fill="currentcolor"/>
<path d="M8.38857 20.2549C9.57182 18.993 12 16.0901 12 13.5C12 10.9768 10.0232 9.00002 7.5 9.00002C4.9768 9.00002 3 10.9768 3 13.5C3 16.8263 7.0102 20.677 7.23432 20.8895L7.23566 20.8908C7.23689 20.892 7.24258 20.8975 7.24258 20.8975C7.25809 20.9123 7.27743 20.919 7.29462 20.9306C7.31589 20.9449 7.33512 20.9618 7.35919 20.9717C7.40437 20.99 7.45197 21 7.5 21C7.77319 21 8.03283 20.9905 8.27892 20.9718C8.48546 20.9561 8.64036 20.7763 8.62461 20.5697C8.61336 20.4219 8.5177 20.3066 8.38857 20.2549ZM7.5 15.75C6.25927 15.75 5.25 14.7408 5.25 13.5C5.25 12.2593 6.25927 11.25 7.5 11.25C8.74073 11.25 9.75 12.2593 9.75 13.5C9.75 14.7407 8.74073 15.75 7.5 15.75Z" fill="currentcolor"/>
</svg>
