<svg width="30" height="18" viewBox="0 0 30 18" fill="none" xmlns="http://www.w3.org/2000/svg">
<path d="M15 0C9.26818 0 4.07027 3.15649 0.234735 8.28346C-0.0782449 8.7035 -0.0782449 9.29032 0.234735 9.71036C4.07027 14.8435 9.26818 18 15 18C20.7318 18 25.9297 14.8435 29.7653 9.71654C30.0782 9.2965 30.0782 8.70968 29.7653 8.28964C25.9297 3.15649 20.7318 0 15 0ZM15.4112 15.3377C11.6063 15.5786 8.46425 12.4221 8.70359 8.58614C8.89997 5.42347 11.4468 2.85999 14.5888 2.66232C18.3937 2.42141 21.5357 5.5779 21.2964 9.41386C21.0939 12.5703 18.5471 15.1338 15.4112 15.3377ZM15.2209 12.4097C13.1712 12.5395 11.4774 10.8408 11.6125 8.77763C11.7168 7.07275 13.0914 5.69526 14.7852 5.58408C16.8349 5.45436 18.5287 7.15306 18.3937 9.2162C18.2832 10.9272 16.9086 12.3047 15.2209 12.4097Z" fill="#2FAFF8"/>
</svg>
