<svg width="24" height="24" viewBox="0 0 24 24" fill="currentcolor" xmlns="http://www.w3.org/2000/svg">
<path d="M12 6C8.17879 6 4.71351 8.10432 2.15649 11.5223C1.94784 11.8023 1.94784 12.1935 2.15649 12.4736C4.71351 15.8957 8.17879 18 12 18C15.8212 18 19.2865 15.8957 21.8435 12.4777C22.0522 12.1977 22.0522 11.8065 21.8435 11.5264C19.2865 8.10432 15.8212 6 12 6ZM12.2741 16.2251C9.73755 16.3857 7.64284 14.2814 7.80239 11.7241C7.93331 9.61565 9.63118 7.90666 11.7259 7.77488C14.2625 7.61428 16.3572 9.7186 16.1976 12.2759C16.0626 14.3802 14.3647 16.0892 12.2741 16.2251ZM12.1473 14.2732C10.7808 14.3596 9.65163 13.2272 9.74164 11.8518C9.81119 10.7152 10.7276 9.79684 11.8568 9.72272C13.2233 9.63624 14.3525 10.7687 14.2625 12.1441C14.1888 13.2848 13.2724 14.2032 12.1473 14.2732Z" fill="currentcolor"/>
</svg>
