<svg width="24" height="24" viewBox="0 0 24 24" fill="currentcolor" xmlns="http://www.w3.org/2000/svg">
    <path fill-rule="evenodd" clip-rule="evenodd" d="M13.9558 6.18629C13.3165 6.06347 12.6636 6 12 6C8.17879 6 4.71351 8.10432 2.15649 11.5223C1.94784 11.8023 1.94784 12.1935 2.15649 12.4736C2.96585 13.5568 3.8662 14.5079 4.84003 15.3021L7.80699 12.3351C7.79133 12.1351 7.78948 11.9311 7.80239 11.7241C7.93331 9.61565 9.63118 7.90666 11.7259 7.77488C11.9409 7.76126 12.1528 7.76393 12.3604 7.78176L13.9558 6.18629ZM11.0812 16.132C11.462 16.2176 11.8622 16.2512 12.2741 16.2251C14.3647 16.0892 16.0626 14.3802 16.1976 12.2759C16.2229 11.8709 16.1916 11.4773 16.111 11.1022L18.7995 8.41369C19.9123 9.26148 20.9352 10.3108 21.8435 11.5264C22.0522 11.8065 22.0522 12.1977 21.8435 12.4777C19.2865 15.8957 15.8212 18 12 18C11.1522 18 10.322 17.8964 9.51532 17.6979L11.0812 16.132Z" fill="currentcolor"/>
    <rect x="17.7228" y="3.93402" width="3" height="20" transform="rotate(45 17.7228 3.93402)" fill="currentcolor"/>
</svg>
