<svg width="21" height="26" viewBox="0 0 21 26" fill="none" xmlns="http://www.w3.org/2000/svg">
<path d="M21 26H0V0H14L21 7V26Z" fill="#FDBD40"/>
<path d="M14 7H21L14 0V7Z" fill="#F49E21"/>
<path d="M4.00002 22H3.00002C2.72389 22 2.50002 21.7761 2.50002 21.5C2.50002 21.2239 2.72389 21 3.00002 21H4.00002C4.27614 21 4.50002 21.2239 4.50002 21.5C4.50002 21.7761 4.27614 22 4.00002 22Z" fill="#E9686A"/>
<path d="M18 22H6C5.72388 22 5.5 21.7761 5.5 21.5C5.5 21.2239 5.72388 21 6 21H18C18.2761 21 18.5 21.2239 18.5 21.5C18.5 21.7761 18.2761 22 18 22Z" fill="#E9686A"/>
<path d="M4.00002 19H3.00002C2.72389 19 2.50002 18.7761 2.50002 18.5C2.50002 18.2239 2.72389 18 3.00002 18H4.00002C4.27614 18 4.50002 18.2239 4.50002 18.5C4.50002 18.7761 4.27614 19 4.00002 19Z" fill="#E9686A"/>
<path d="M18 19H6C5.72388 19 5.5 18.7761 5.5 18.5C5.5 18.2239 5.72388 18 6 18H18C18.2761 18 18.5 18.2239 18.5 18.5C18.5 18.7761 18.2761 19 18 19Z" fill="#E9686A"/>
<path d="M4.00002 16H3.00002C2.72389 16 2.50002 15.7761 2.50002 15.5C2.50002 15.2239 2.72389 15 3.00002 15H4.00002C4.27614 15 4.50002 15.2239 4.50002 15.5C4.50002 15.7761 4.27614 16 4.00002 16Z" fill="#E9686A"/>
<path d="M18 16H6C5.72388 16 5.5 15.7761 5.5 15.5C5.5 15.2239 5.72388 15 6 15H18C18.2761 15 18.5 15.2239 18.5 15.5C18.5 15.7761 18.2761 16 18 16Z" fill="#E9686A"/>
<path d="M4.00002 13H3.00002C2.72389 13 2.50002 12.7761 2.50002 12.5C2.50002 12.2239 2.72389 12 3.00002 12H4.00002C4.27614 12 4.50002 12.2239 4.50002 12.5C4.50002 12.7761 4.27614 13 4.00002 13Z" fill="#E9686A"/>
<path d="M18 13H6C5.72388 13 5.5 12.7761 5.5 12.5C5.5 12.2239 5.72388 12 6 12H18C18.2761 12 18.5 12.2239 18.5 12.5C18.5 12.7761 18.2761 13 18 13Z" fill="#E9686A"/>
<path d="M4.00002 10H3.00002C2.72389 10 2.50002 9.77613 2.50002 9.5C2.50002 9.22388 2.72389 9 3.00002 9H4.00002C4.27614 9 4.50002 9.22388 4.50002 9.5C4.50002 9.77613 4.27614 10 4.00002 10Z" fill="#E9686A"/>
<path d="M18 10H6C5.72388 10 5.5 9.77613 5.5 9.5C5.5 9.22388 5.72388 9 6 9H18C18.2761 9 18.5 9.22388 18.5 9.5C18.5 9.77613 18.2761 10 18 10Z" fill="#E9686A"/>
<path d="M3.00002 4.5H6.00002V7.50001H3.00002V4.5Z" fill="#E9686A"/>
</svg>
