<svg width="24" height="24" viewBox="0 0 24 24" fill="currentcolor" xmlns="http://www.w3.org/2000/svg">
<path d="M14 8.30769L18 8.30769L14 4L14 8.30769Z" fill="currentcolor"/>
<path fill-rule="evenodd" clip-rule="evenodd" d="M6 20H18V8.30769L14 4H6V20ZM9.42857 10.1538H16.2857C16.4435 10.1538 16.5714 10.0161 16.5714 9.84616C16.5714 9.67623 16.4435 9.53846 16.2857 9.53846H9.42857C9.27079 9.53846 9.14286 9.67623 9.14286 9.84616C9.14286 10.0161 9.27079 10.1538 9.42857 10.1538ZM16.2857 12H9.42857C9.27079 12 9.14286 11.8622 9.14286 11.6923C9.14286 11.5224 9.27079 11.3846 9.42857 11.3846H16.2857C16.4435 11.3846 16.5714 11.5224 16.5714 11.6923C16.5714 11.8622 16.4435 12 16.2857 12ZM7.71429 10.1538H8.28572C8.4435 10.1538 8.57143 10.0161 8.57143 9.84616C8.57143 9.67623 8.4435 9.53846 8.28572 9.53846H7.71429C7.5565 9.53846 7.42858 9.67623 7.42858 9.84616C7.42858 10.0161 7.5565 10.1538 7.71429 10.1538ZM7.71429 6.76923H9.42857V8.61539H7.71429V6.76923ZM7.71429 12H8.28572C8.4435 12 8.57143 11.8622 8.57143 11.6923C8.57143 11.5224 8.4435 11.3846 8.28572 11.3846H7.71429C7.5565 11.3846 7.42858 11.5224 7.42858 11.6923C7.42858 11.8622 7.5565 12 7.71429 12ZM8.28572 13.8462H7.71429C7.5565 13.8462 7.42858 13.7084 7.42858 13.5385C7.42858 13.3685 7.5565 13.2308 7.71429 13.2308H8.28572C8.4435 13.2308 8.57143 13.3685 8.57143 13.5385C8.57143 13.7084 8.4435 13.8462 8.28572 13.8462ZM7.71429 15.6923H8.28572C8.4435 15.6923 8.57143 15.5545 8.57143 15.3846C8.57143 15.2147 8.4435 15.0769 8.28572 15.0769H7.71429C7.5565 15.0769 7.42858 15.2147 7.42858 15.3846C7.42858 15.5545 7.5565 15.6923 7.71429 15.6923ZM8.28572 17.5385H7.71429C7.5565 17.5385 7.42858 17.4007 7.42858 17.2308C7.42858 17.0608 7.5565 16.9231 7.71429 16.9231H8.28572C8.4435 16.9231 8.57143 17.0608 8.57143 17.2308C8.57143 17.4007 8.4435 17.5385 8.28572 17.5385ZM9.42857 17.5385H16.2857C16.4435 17.5385 16.5714 17.4007 16.5714 17.2308C16.5714 17.0608 16.4435 16.9231 16.2857 16.9231H9.42857C9.27079 16.9231 9.14286 17.0608 9.14286 17.2308C9.14286 17.4007 9.27079 17.5385 9.42857 17.5385ZM16.2857 15.6923H9.42857C9.27079 15.6923 9.14286 15.5545 9.14286 15.3846C9.14286 15.2147 9.27079 15.0769 9.42857 15.0769H16.2857C16.4435 15.0769 16.5714 15.2147 16.5714 15.3846C16.5714 15.5545 16.4435 15.6923 16.2857 15.6923ZM9.42857 13.8462H16.2857C16.4435 13.8462 16.5714 13.7084 16.5714 13.5385C16.5714 13.3685 16.4435 13.2308 16.2857 13.2308H9.42857C9.27079 13.2308 9.14286 13.3685 9.14286 13.5385C9.14286 13.7084 9.27079 13.8462 9.42857 13.8462Z" fill="currentcolor"/>
</svg>
