<svg width="39" height="30" viewBox="0 0 39 30" fill="none" xmlns="http://www.w3.org/2000/svg">
<path d="M2.41087 0H11.5559C12.1549 0 12.7081 0.319926 13.007 0.838927L14.5121 2.89509C14.811 3.41409 15.3643 3.73402 15.9631 3.73402H38.2385V27.2095C38.2385 28.4424 37.239 29.442 36.0061 29.442H2.23246C0.999542 29.442 0 28.4424 0 27.2095V6.33817C0 4.61254 0.266605 2.89721 0.790423 1.253C0.982313 0.515082 1.64846 0 2.41087 0Z" fill="#C18742"/>
<path d="M32.8724 3.34999H3.47972V15.7663H32.8724V3.34999Z" fill="#EBF0F3"/>
<path d="M36.5643 1.11623H27.3486C26.6932 1.11623 26.098 1.49862 25.8257 2.0947L24.2487 5.54603C23.9763 6.14211 23.3812 6.52451 22.7258 6.52451H0V27.7675C0 29.0005 0.999542 30 2.23246 30H36.0061C37.2391 30 38.2386 29.0005 38.2386 27.7675V2.79057C38.2386 1.86591 37.4889 1.11623 36.5643 1.11623Z" fill="#EDA754"/>
</svg>
