<svg width="23" height="23" viewBox="0 0 23 23" fill="none" xmlns="http://www.w3.org/2000/svg">
<path d="M19.5994 3.40059C17.4297 1.2309 14.5592 0 11.5 0C5.18142 0 0 5.17123 0 11.5C0 17.8321 5.16938 23 11.5 23C17.8028 23 23 17.8524 23 11.5C23 8.44078 21.7691 5.57027 19.5994 3.40059ZM11.5 20.2598C6.65805 20.2598 2.74023 16.3522 2.74023 11.5C2.74023 9.61324 3.3332 7.82085 4.4248 6.33843L16.6616 18.5617C15.1791 19.6668 13.3868 20.2598 11.5 20.2598ZM18.5617 16.6615L6.33843 4.4248C7.82094 3.3332 9.61324 2.74023 11.5 2.74023C16.3421 2.74023 20.2598 6.64776 20.2598 11.5C20.2598 13.3867 19.6668 15.1791 18.5617 16.6615Z" fill="#D73737"/>
</svg>
