<svg width="24" height="24" viewBox="0 0 24 24" fill="currentcolor" xmlns="http://www.w3.org/2000/svg">
<path d="M20.5992 10.4742L18.4934 9.95742C18.3773 9.58828 18.2297 9.22969 18.0504 8.88164L19.1262 7.08867C19.2527 6.87773 19.2211 6.61406 19.0523 6.44531L17.5547 4.94766C17.3859 4.77891 17.1223 4.74727 16.9113 4.87383L15.1184 5.94961C14.7703 5.77031 14.4117 5.62266 14.0426 5.50664L13.5363 3.40078C13.473 3.16875 13.2621 3 13.0195 3H10.9102C10.6676 3 10.4566 3.16875 10.3934 3.40078L9.88711 5.50664C9.51797 5.62266 9.15938 5.77031 8.81133 5.94961L7.01836 4.87383C6.80742 4.74727 6.54375 4.77891 6.375 4.94766L4.87734 6.44531C4.70859 6.61406 4.67695 6.87773 4.80352 7.08867L5.8793 8.88164C5.7 9.22969 5.55234 9.58828 5.43633 9.95742L3.40078 10.4742C3.16875 10.527 3 10.7379 3 10.9805V13.0898C3 13.3324 3.16875 13.5434 3.40078 13.5961L5.43633 14.1129C5.55234 14.482 5.7 14.8406 5.8793 15.1887L4.80352 16.9816C4.67695 17.1926 4.70859 17.4562 4.87734 17.625L6.375 19.1227C6.54375 19.2914 6.80742 19.323 7.01836 19.1965L8.81133 18.1207C9.15938 18.3 9.51797 18.4477 9.88711 18.5637L10.3934 20.5992C10.4566 20.8313 10.6676 21 10.9102 21H13.0195C13.2621 21 13.473 20.8313 13.5363 20.5992L14.0426 18.5637C14.4117 18.4477 14.7703 18.3 15.1184 18.1207L16.9113 19.1965C17.1223 19.323 17.3859 19.2914 17.5547 19.1227L19.0523 17.625C19.2211 17.4562 19.2527 17.1926 19.1262 16.9816L18.0504 15.1887C18.2297 14.8406 18.3773 14.482 18.4934 14.1129L20.5992 13.5961C20.8313 13.5434 21 13.3324 21 13.0898V10.9805C21 10.7379 20.8313 10.527 20.5992 10.4742ZM11.9648 14.6719C10.5094 14.6719 9.32812 13.4906 9.32812 12.0352C9.32812 10.5797 10.5094 9.39844 11.9648 9.39844C13.4203 9.39844 14.6016 10.5797 14.6016 12.0352C14.6016 13.4906 13.4203 14.6719 11.9648 14.6719Z" fill="currentcolor"/>
</svg>
