<svg width="24" height="24" viewBox="0 0 24 24" fill="currentcolor" xmlns="http://www.w3.org/2000/svg">
<path d="M19.6875 10.5H13.3125C12.588 10.5 12 11.088 12 11.8125V19.6875C12 20.412 12.588 21 13.3125 21H19.6875C20.412 21 21 20.412 21 19.6875V11.8125C21 11.088 20.412 10.5 19.6875 10.5ZM18.0938 18H14.7188C14.4083 18 14.1563 17.748 14.1563 17.4375C14.1563 17.127 14.4083 16.875 14.7188 16.875H18.0938C18.4043 16.875 18.6563 17.127 18.6563 17.4375C18.6563 17.748 18.4043 18 18.0938 18ZM18.0938 15.75H14.7188C14.4083 15.75 14.1563 15.498 14.1563 15.1875C14.1563 14.877 14.4083 14.625 14.7188 14.625H18.0938C18.4043 14.625 18.6563 14.877 18.6563 15.1875C18.6563 15.498 18.4043 15.75 18.0938 15.75Z" fill="currentcolor"/>
<path d="M13.6875 5.25H12.75V5.0625C12.75 4.752 12.498 4.5 12.1875 4.5H11.3595C11.1135 3.63525 10.3178 3 9.375 3C8.43225 3 7.6365 3.63525 7.3905 4.5H6.5625C6.252 4.5 6 4.752 6 5.0625V5.25H5.0625C3.92475 5.25 3 6.17475 3 7.3125V16.6875C3 17.8252 3.92475 18.75 5.0625 18.75H10.875V11.8125C10.875 10.4685 11.9685 9.375 13.3125 9.375H15.75V7.3125C15.75 6.17475 14.8253 5.25 13.6875 5.25ZM7.125 5.625H7.875C8.1855 5.625 8.4375 5.373 8.4375 5.0625C8.4375 4.54575 8.85825 4.125 9.375 4.125C9.89175 4.125 10.3125 4.54575 10.3125 5.0625C10.3125 5.373 10.5645 5.625 10.875 5.625H11.625V6.5625C11.625 6.666 11.541 6.75 11.4375 6.75H7.3125C7.209 6.75 7.125 6.666 7.125 6.5625V5.625Z" fill="currentcolor"/>
</svg>
