<svg width="30" height="30" viewBox="0 0 30 30" fill="none" xmlns="http://www.w3.org/2000/svg">
<path d="M27.8125 12.5H17.1875C15.98 12.5 15 13.48 15 14.6875V27.8125C15 29.02 15.98 30 17.1875 30H27.8125C29.02 30 30 29.02 30 27.8125V14.6875C30 13.48 29.02 12.5 27.8125 12.5ZM25.1562 25H19.5312C19.0137 25 18.5938 24.58 18.5938 24.0625C18.5938 23.545 19.0137 23.125 19.5312 23.125H25.1562C25.6738 23.125 26.0938 23.545 26.0938 24.0625C26.0938 24.58 25.6738 25 25.1562 25ZM25.1562 21.25H19.5312C19.0137 21.25 18.5938 20.83 18.5938 20.3125C18.5938 19.795 19.0137 19.375 19.5312 19.375H25.1562C25.6738 19.375 26.0938 19.795 26.0938 20.3125C26.0938 20.83 25.6738 21.25 25.1562 21.25Z" fill="#CAC9C9"/>
<path d="M17.8125 3.75H16.25V3.4375C16.25 2.92 15.83 2.5 15.3125 2.5H13.9325C13.5225 1.05875 12.1962 0 10.625 0C9.05375 0 7.7275 1.05875 7.3175 2.5H5.9375C5.42 2.5 5 2.92 5 3.4375V3.75H3.4375C1.54125 3.75 0 5.29125 0 7.1875V22.8125C0 24.7087 1.54125 26.25 3.4375 26.25H13.125V14.6875C13.125 12.4475 14.9475 10.625 17.1875 10.625H21.25V7.1875C21.25 5.29125 19.7087 3.75 17.8125 3.75ZM6.875 4.375H8.125C8.6425 4.375 9.0625 3.955 9.0625 3.4375C9.0625 2.57625 9.76375 1.875 10.625 1.875C11.4863 1.875 12.1875 2.57625 12.1875 3.4375C12.1875 3.955 12.6075 4.375 13.125 4.375H14.375V5.9375C14.375 6.11 14.235 6.25 14.0625 6.25H7.1875C7.015 6.25 6.875 6.11 6.875 5.9375V4.375Z" fill="#ED940E"/>
</svg>
