<svg width="24" height="24" viewBox="0 0 24 24" fill="currentcolor" xmlns="http://www.w3.org/2000/svg">
<path d="M12.555 17.9504C14.8881 17.6492 16.5222 15.5077 16.0075 13.2602L12.555 14.4542V17.9504Z" fill="currentcolor"/>
<path d="M12.555 10.2283V13.3318L15.6258 12.2698C15.0194 11.1834 13.8881 10.4004 12.555 10.2283Z" fill="currentcolor"/>
<path d="M7.89873 14.0893C7.89873 16.0593 9.44511 17.6921 11.445 17.9503V10.2283C9.44511 10.4865 7.89873 12.1194 7.89873 14.0893Z" fill="currentcolor"/>
<path d="M12.555 7.19871V7.15199C13.5115 6.91725 14.2201 6.09045 14.2201 5.10937C14.2201 3.94627 13.2242 3 12 3C10.7759 3 9.78 3.94627 9.78 5.10937C9.78 6.09045 10.4886 6.91725 11.445 7.15199V7.19871C7.69289 7.46899 4.72691 10.4563 4.72691 14.0893C4.72691 17.8999 7.98959 21 12 21C16.0105 21 19.2731 17.8999 19.2731 14.0893C19.2731 10.4563 16.3071 7.46899 12.555 7.19871ZM10.89 5.10937C10.89 4.52782 11.388 4.05469 12 4.05469C12.6121 4.05469 13.11 4.52782 13.11 5.10937C13.11 5.4989 12.8865 5.83954 12.555 6.02217V5.67187C12.555 5.38064 12.3065 5.14453 12 5.14453C11.6935 5.14453 11.445 5.38064 11.445 5.67187V6.02217C11.1136 5.83954 10.89 5.4989 10.89 5.10937ZM12 19.0409C9.12651 19.0409 6.78871 16.8197 6.78871 14.0893C6.78871 11.3591 9.12651 9.13782 12 9.13782C14.8736 9.13782 17.2114 11.3591 17.2114 14.0893C17.2114 16.8197 14.8736 19.0409 12 19.0409Z" fill="currentcolor"/>
<path d="M19.8374 8.33002L18.2675 6.83835C18.0501 6.63181 17.6983 6.63349 17.4827 6.83835L16.7535 7.53127C17.6743 8.13597 18.4625 8.91116 19.0664 9.80835L19.8374 9.07569C20.0542 8.86967 20.0542 8.53569 19.8374 8.33002Z" fill="currentcolor"/>
<path d="M7.24659 7.53127L6.51731 6.83835C6.30164 6.63345 5.94988 6.63184 5.73254 6.83835L4.16262 8.33002C3.94579 8.53569 3.94579 8.86967 4.16262 9.07569L4.9337 9.80835C5.53755 8.91116 6.32565 8.13597 7.24659 7.53127Z" fill="currentcolor"/>
</svg>
