<svg width="18" height="20" viewBox="0 0 18 20" fill="none" xmlns="http://www.w3.org/2000/svg">
<path d="M9.58594 16.6116C12.0491 16.2769 13.7742 13.8974 13.2309 11.4002L9.58594 12.7269V16.6116Z" fill="#E38414"/>
<path d="M9.58594 8.03146V11.4798L12.8279 10.2998C12.1877 9.09264 10.9933 8.22271 9.58594 8.03146Z" fill="#E38414"/>
<path d="M4.67014 12.3215C4.67014 14.5103 6.30271 16.3246 8.41408 16.6115V8.03146C6.30271 8.31838 4.67014 10.1327 4.67014 12.3215Z" fill="#E38414"/>
<path d="M9.58595 4.66523V4.61332C10.5957 4.3525 11.3438 3.43383 11.3438 2.34375C11.3438 1.05141 10.2924 0 9.00001 0C7.70767 0 6.65626 1.05141 6.65626 2.34375C6.65626 3.43383 7.40435 4.3525 8.41407 4.61332V4.66523C4.45282 4.96555 1.32153 8.28473 1.32153 12.3215C1.32153 16.5554 4.76606 20 9.00001 20C13.234 20 16.6785 16.5554 16.6785 12.3215C16.6785 8.28473 13.5472 4.96555 9.58595 4.66523V4.66523ZM7.82813 2.34375C7.82813 1.69758 8.35384 1.17188 9.00001 1.17188C9.64618 1.17188 10.1719 1.69758 10.1719 2.34375C10.1719 2.77656 9.93587 3.15504 9.58595 3.35797V2.96875C9.58595 2.64516 9.3236 2.38281 9.00001 2.38281C8.67642 2.38281 8.41407 2.64516 8.41407 2.96875V3.35797C8.06415 3.15504 7.82813 2.77656 7.82813 2.34375V2.34375ZM9.00001 17.8232C5.96634 17.8232 3.49825 15.3552 3.49825 12.3215C3.49825 9.28789 5.96634 6.8198 9.00001 6.8198C12.0337 6.8198 14.5018 9.28789 14.5018 12.3215C14.5018 15.3552 12.0337 17.8232 9.00001 17.8232Z" fill="#E38414"/>
<path d="M17.2742 5.92225L15.6168 4.26483C15.3873 4.03534 15.0159 4.03721 14.7883 4.26483L14.0184 5.03475C14.9906 5.70663 15.8227 6.56796 16.4602 7.56483L17.2742 6.75077C17.5031 6.52186 17.5031 6.15077 17.2742 5.92225Z" fill="#E38414"/>
<path d="M3.98165 5.03475L3.21172 4.26483C2.98403 4.03717 2.61266 4.03538 2.38321 4.26483L0.725787 5.92225C0.496881 6.15077 0.496881 6.52186 0.725787 6.75077L1.53985 7.56483C2.17735 6.56796 3.00938 5.70663 3.98165 5.03475V5.03475Z" fill="#E38414"/>
</svg>
