<svg width="24" height="24" viewBox="0 0 24 24" fill="currentcolor" xmlns="http://www.w3.org/2000/svg">
<path d="M12 9.81818H6.75001C6.33601 9.81818 6.00001 10.144 6.00001 10.5455V11.6364C6.00001 12.0378 6.33601 12.3636 6.75001 12.3636C7.16401 12.3636 7.50001 12.0378 7.50001 11.6364V11.2727H8.62501V15.6364H8.25001C7.83601 15.6364 7.50001 15.9622 7.50001 16.3636C7.50001 16.7651 7.83601 17.0909 8.25001 17.0909H10.5C10.914 17.0909 11.25 16.7651 11.25 16.3636C11.25 15.9622 10.914 15.6364 10.5 15.6364H10.125V11.2727H11.25V11.6364C11.25 12.0378 11.586 12.3636 12 12.3636C12.414 12.3636 12.75 12.0378 12.75 11.6364V10.5455C12.75 10.144 12.414 9.81818 12 9.81818Z" fill="currentcolor"/>
<path d="M17.25 11.2727H15C14.586 11.2727 14.25 10.9469 14.25 10.5455C14.25 10.144 14.586 9.81818 15 9.81818H17.25C17.664 9.81818 18 10.144 18 10.5455C18 10.9469 17.664 11.2727 17.25 11.2727Z" fill="currentcolor"/>
<path d="M17.25 14.1818H15C14.586 14.1818 14.25 13.856 14.25 13.4545C14.25 13.0531 14.586 12.7273 15 12.7273H17.25C17.664 12.7273 18 13.0531 18 13.4545C18 13.856 17.664 14.1818 17.25 14.1818Z" fill="currentcolor"/>
<path d="M17.25 17.0909H15C14.586 17.0909 14.25 16.7651 14.25 16.3636C14.25 15.9622 14.586 15.6364 15 15.6364H17.25C17.664 15.6364 18 15.9622 18 16.3636C18 16.7651 17.664 17.0909 17.25 17.0909Z" fill="currentcolor"/>
<path d="M18.75 4H5.25C4.0095 4 3 4.97891 3 6.18182V17.8182C3 19.0211 4.0095 20 5.25 20H18.75C19.9905 20 21 19.0211 21 17.8182V6.18182C21 4.97891 19.9905 4 18.75 4ZM18.75 18.5455H5.25C4.83675 18.5455 4.5 18.2196 4.5 17.8182V7.63636H19.5V17.8182C19.5 18.2196 19.1632 18.5455 18.75 18.5455Z" fill="currentcolor"/>
</svg>
