<svg width="18" height="18" viewBox="0 0 18 18" fill="none" xmlns="http://www.w3.org/2000/svg">
<path d="M9 6.75H3.75C3.336 6.75 3 7.086 3 7.5V8.625C3 9.039 3.336 9.375 3.75 9.375C4.164 9.375 4.5 9.039 4.5 8.625V8.25H5.625V12.75H5.25C4.836 12.75 4.5 13.086 4.5 13.5C4.5 13.914 4.836 14.25 5.25 14.25H7.5C7.914 14.25 8.25 13.914 8.25 13.5C8.25 13.086 7.914 12.75 7.5 12.75H7.125V8.25H8.25V8.625C8.25 9.039 8.586 9.375 9 9.375C9.41401 9.375 9.75001 9.039 9.75001 8.625V7.5C9.75001 7.086 9.41401 6.75 9 6.75Z" fill="currentcolor"/>
<path d="M14.25 8.25H12C11.586 8.25 11.25 7.914 11.25 7.5C11.25 7.086 11.586 6.75 12 6.75H14.25C14.664 6.75 15 7.086 15 7.5C15 7.914 14.664 8.25 14.25 8.25Z" fill="currentcolor"/>
<path d="M14.25 11.25H12C11.586 11.25 11.25 10.914 11.25 10.5C11.25 10.086 11.586 9.75 12 9.75H14.25C14.664 9.75 15 10.086 15 10.5C15 10.914 14.664 11.25 14.25 11.25Z" fill="currentcolor"/>
<path d="M14.25 14.25H12C11.586 14.25 11.25 13.914 11.25 13.5C11.25 13.086 11.586 12.75 12 12.75H14.25C14.664 12.75 15 13.086 15 13.5C15 13.914 14.664 14.25 14.25 14.25Z" fill="currentcolor"/>
<path d="M15.75 0.75H2.25C1.0095 0.75 0 1.7595 0 3V15C0 16.2405 1.0095 17.25 2.25 17.25H15.75C16.9905 17.25 18 16.2405 18 15V3C18 1.7595 16.9905 0.75 15.75 0.75ZM15.75 15.75H2.25C1.83675 15.75 1.5 15.414 1.5 15V4.5H16.5V15C16.5 15.414 16.1632 15.75 15.75 15.75Z" fill="currentcolor"/>
</svg>
