<svg width="33" height="25" viewBox="0 0 33 25" fill="none" xmlns="http://www.w3.org/2000/svg">
<path d="M25.785 24.0117H20.4514H19.0151H18.7049V16.8574H21.0447C21.6381 16.8574 21.9888 16.1831 21.6381 15.6976L17.0866 9.39968C16.7967 8.9951 16.1966 8.9951 15.9066 9.39968L11.3551 15.6976C11.0045 16.1831 11.3484 16.8574 11.9485 16.8574H14.2883V24.0117H13.9781H12.5419H6.3586C2.81855 23.8161 0 20.5053 0 16.9181C0 14.4434 1.34185 12.2857 3.33102 11.1191C3.14896 10.6269 3.05456 10.1009 3.05456 9.54802C3.05456 7.01941 5.09767 4.9763 7.62628 4.9763C8.17246 4.9763 8.69841 5.0707 9.19064 5.25276C10.6539 2.151 13.8096 0 17.4777 0C22.2248 0.00674295 26.1357 3.6412 26.5807 8.2736C30.2286 8.9007 33 12.2789 33 16.1022C33 20.1884 29.8173 23.7285 25.785 24.0117Z" fill="#FFBA0A"/>
</svg>
